<svg t="1579077978644" class="icon" viewBox="0 0 1024 1024" version="1.1" xmlns="http://www.w3.org/2000/svg" p-id="5642" width="200" height="200"><path d="M214.434837 746.329956c-21.781072 0-39.20593-17.424858-39.20593-39.20593s17.424858-39.20593 39.20593-39.20593 39.20593 17.424858 39.20593 39.20593S236.21591 746.329956 214.434837 746.329956zM214.434837 557.701878c-82.680071 0-149.421124 66.742077-149.421124 149.421124S131.754766 856.54515 214.434837 856.54515s149.421124-66.742077 149.421124-149.421124S297.113885 557.701878 214.434837 557.701878zM214.434837 815.520805c-59.81941 0-108.396779-48.578392-108.396779-108.396779s48.578392-108.396779 108.396779-108.396779 108.396779 48.578392 108.396779 108.396779S274.253224 815.520805 214.434837 815.520805zM301.019845 162.313759 119.575376 162.313759c-30.02585 0-54.562686 24.536836-54.562686 54.562686l0 181.444469c0 30.02585 24.536836 54.562686 54.562686 54.562686L301.019845 452.883601c30.02585 0 54.562686-24.536836 54.562686-54.562686L355.582531 216.876446C355.582531 186.851619 331.045695 162.313759 301.019845 162.313759zM318.537823 389.243165c0 15.962553-12.802584 29.055756-28.41005 29.055756l-159.660326 0c-15.608489 0-28.41005-13.093203-28.41005-29.055756L102.057397 225.958288c0-15.998369 12.802584-29.091572 28.41005-29.091572l159.660326 0c15.608489 0 28.41005 13.093203 28.41005 29.091572L318.537823 389.243165zM297.92639 234.168274l-16.389272-11.025101c-4.469801-3.27765-10.727319-2.085498-14.004969 2.384303l-80.455403 119.193683-37.248346-37.248346c-3.874237-3.874237-10.131755-3.874237-14.004969 0l-14.004969 14.302751c-3.874237 3.874237-3.874237 10.131755 0 14.004969l56.915267 56.915267c3.27765 3.27765 8.344039 5.661953 12.812817 5.661953s8.939603-2.682086 11.919471-7.151887l97.142457-143.032624C303.588343 243.405659 302.396191 237.445924 297.92639 234.168274zM437.225993 185.40671l0 244.38394 523.680017 0L960.90601 185.40671 437.225993 185.40671zM916.78821 385.110031 489.321488 385.110031 489.321488 236.411361l427.467745 0L916.789233 385.110031zM437.225993 589.06826l0 244.38394 523.680017 0L960.90601 589.06826 437.225993 589.06826zM916.678716 789.335423 485.186308 789.335423 485.186308 639.390365l431.492408 0L916.678716 789.335423z" p-id="5643"></path></svg>
